<svg width="178" height="35" viewBox="0 0 178 35" fill="none" xmlns="http://www.w3.org/2000/svg">
<line x1="112" y1="16.882" x2="178" y2="16.882" stroke="#0063A8"/>
<line y1="16.882" x2="66" y2="16.882" stroke="#0063A8"/>
<circle cx="89" cy="17.382" r="16" stroke="#0063A8" stroke-width="2.76396" stroke-dasharray="0.98 8.39"/>
<mask id="path-4-inside-1_4492_267" fill="white">
<path fill-rule="evenodd" clip-rule="evenodd" d="M88.0139 6.19451L81.1081 19.3493C80.7586 20.0152 81.2415 20.8141 81.9935 20.8141H85.6764L85.4965 27.3273C85.4379 29.4454 88.2816 30.1883 89.2665 28.3121L96.1723 15.1573C96.5219 14.4915 96.0389 13.6925 95.2869 13.6925H91.604L91.784 7.17937C91.8425 5.0612 88.9988 4.31834 88.0139 6.19451Z"/>
</mask>
<path fill-rule="evenodd" clip-rule="evenodd" d="M88.0139 6.19451L81.1081 19.3493C80.7586 20.0152 81.2415 20.8141 81.9935 20.8141H85.6764L85.4965 27.3273C85.4379 29.4454 88.2816 30.1883 89.2665 28.3121L96.1723 15.1573C96.5219 14.4915 96.0389 13.6925 95.2869 13.6925H91.604L91.784 7.17937C91.8425 5.0612 88.9988 4.31834 88.0139 6.19451Z" fill="#FFDF4E"/>
<path d="M81.1081 19.3493L82.337 19.9944L81.1081 19.3493ZM88.0139 6.19451L89.2427 6.83959V6.83959L88.0139 6.19451ZM85.6764 20.8141L87.0638 20.8525L87.1032 19.4263H85.6764V20.8141ZM85.4965 27.3273L84.1091 27.2889L85.4965 27.3273ZM89.2665 28.3121L88.0377 27.6671L89.2665 28.3121ZM96.1723 15.1573L97.4011 15.8024L96.1723 15.1573ZM91.604 13.6925L90.2167 13.6542L90.1773 15.0804H91.604V13.6925ZM91.784 7.17937L93.1713 7.2177L91.784 7.17937ZM82.337 19.9944L89.2427 6.83959L86.7851 5.54942L79.8793 18.7042L82.337 19.9944ZM81.9935 19.4263C82.2852 19.4263 82.4725 19.7361 82.337 19.9944L79.8793 18.7042C79.0446 20.2942 80.1978 22.202 81.9935 22.202V19.4263ZM85.6764 19.4263H81.9935V22.202H85.6764V19.4263ZM86.8838 27.3656L87.0638 20.8525L84.2891 20.7758L84.1091 27.2889L86.8838 27.3656ZM88.0377 27.6671C87.7363 28.2413 86.8659 28.0139 86.8838 27.3656L84.1091 27.2889C84.01 30.877 88.827 32.1353 90.4954 28.9572L88.0377 27.6671ZM94.9435 14.5122L88.0377 27.6671L90.4954 28.9572L97.4011 15.8024L94.9435 14.5122ZM95.2869 15.0804C94.9952 15.0804 94.8079 14.7705 94.9435 14.5122L97.4011 15.8024C98.2358 14.2124 97.0827 12.3047 95.2869 12.3047V15.0804ZM91.604 15.0804H95.2869V12.3047H91.604V15.0804ZM90.3966 7.14103L90.2167 13.6542L92.9913 13.7309L93.1713 7.2177L90.3966 7.14103ZM89.2427 6.83959C89.5442 6.26537 90.4146 6.49271 90.3966 7.14103L93.1713 7.2177C93.2704 3.62968 88.4535 2.37131 86.7851 5.54942L89.2427 6.83959Z" fill="#0063A8" mask="url(#path-4-inside-1_4492_267)"/>
</svg>
